<svg viewBox="0 0 3439 988" xmlns="http://www.w3.org/2000/svg" fill-rule="evenodd" clip-rule="evenodd" stroke-linejoin="round" stroke-miterlimit="1.414"><path d="M2970.238 369.828c-22.483-44.01-67.39-77.37-124.164-77.46-61.381-.076-106.154 36.839-125.596 76.068l249.76 1.392zm131.366 174.543c-37.9 85.902-128.429 168.325-255.53 168.173-145.738-.166-281.308-113.83-281.263-283.335.044-147.34 124.06-276.92 279.384-276.588 87.622.197 163.749 39.442 213.859 98.61 39.48 46.613 64.005 104.572 66.585 171.185 1.073 27.64-2.535 50.455-2.684 50.637l-411.66-1.74c16.013 59.336 74.278 101.092 135.809 100.94 54.255-.12 94.092-30.847 118.021-66.34l137.479 38.458zM1985.864 802.897c45.819 127.069 166.723 184.168 261.239 184.168 125.461 0 224.295-78.862 262.198-175.977 8.636-22.465 16.552-54.525 18.471-75.118 2.64-27.613 1.44-48.44 1.44-66.927V154.217l-136.017-.234-7.916 516.698c21.35 98.519-48.458 176.913-138.176 176.445-73.886-.468-117.066-57.801-126.422-85.649l-134.817 41.42z" fill="#fff" fill-rule="nonzero"/><path d="M2247.569 152.5c154.556-.494 281.971 122.168 281.092 279.311-.829 146.041-106.672 280.065-281.092 280.065-154.543 0-278.177-125.521-278.177-280.065 0-148.888 122.848-278.803 278.177-279.31zm0 139.272c77.278 0 141.301 62.76 141.301 140.039 0 77.266-62.736 140.002-140.014 140.002-77.266 0-140.002-62.736-140.002-140.002 0-77.278 61.444-140.039 138.715-140.039zM1653.839 152.632c154.556 0 280.016 125.422 280.016 279.966a283.59 283.59 0 0 1-2.03 33.886c-16.745 138.591-134.903 246.13-277.986 246.13-154.538 0-280.008-125.472-280.008-280.016 0-154.544 125.47-279.966 280.008-279.966zm0 139.952c77.278 0 140.014 62.736 140.014 140.014 0 77.265-62.736 140.001-140.014 140.001-77.266 0-140.002-62.736-140.002-140.001 0-77.278 62.736-140.014 140.002-140.014z" fill="#fff"/><path d="M1360.644 292.57c-53.554 1.3-140.535 35.265-140.982 147.673l.224 272.564h-138.388V152.642h138.164v37.444c35.2-20.197 75.277-33.844 122.286-36.915 2.683-.166 7.827-.408 12.941-.514 1.849-.03 5.397-.03 5.755-.03v139.942zM3438.191 292.57c-53.554 1.3-140.534 35.265-140.982 147.673l.224 272.564h-138.388V152.642h138.164v37.444c35.201-20.197 75.277-33.844 122.286-36.915 2.684-.166 7.828-.408 12.942-.514 1.848-.03 5.397-.03 5.754-.03v139.942z" fill="#fff" fill-rule="nonzero"/><g><path d="M69.577 437.485H-.003C-.004 195.861 195.87-.017 437.496-.017c241.621 0 437.496 195.878 437.496 437.502h-69.577 69.577c0 241.62-195.875 437.498-437.496 437.498-241.626 0-437.5-195.877-437.5-437.498h69.58zm586.668 0c0-120.816-97.94-218.753-218.748-218.753-120.813 0-218.749 97.937-218.749 218.753 0 120.813 97.936 218.75 218.749 218.75 120.808 0 218.748-97.937 218.748-218.75z" fill="#e2e0ff"/><path d="M.001 437.493c0 241.618 195.875 437.503 437.49 437.503 241.638 0 437.503-195.885 437.503-437.503H656.253c0 120.799-97.943 218.742-218.761 218.742-120.803 0-218.742-97.943-218.742-218.742H.001z" fill="#fff"/></g></svg>